<?xml version="1.0" encoding="utf-8"?>
<!-- Generator: Adobe Illustrator 19.1.0, SVG Export Plug-In . SVG Version: 6.00 Build 0)  -->
<svg
  version="1.1" id="Layer_1"
  xmlns="http://www.w3.org/2000/svg"
  xlink="http://www.w3.org/1999/xlink"
  x="0px" y="0px"
  style="display: none;"
  space="preserve">

  <symbol id="star-empty" viewBox="25 26 23 22">
    <path class="empty-icon" d="M46,34.1c-0.1-0.2-0.3-0.3-0.5-0.3h-6.7l-2.3-6.5c-0.1-0.2-0.3-0.3-0.5-0.3c-0.2,0-0.4,0.1-0.5,0.3l-2.3,6.5
      h-6.7c-0.2,0-0.4,0.1-0.5,0.3c0,0.2,0,0.4,0.2,0.5l5.2,4.2l-2.3,6.7c-0.1,0.2,0,0.4,0.1,0.5c0.1,0.1,0.4,0.2,0.6,0l6.2-3.7l6.2,3.7
      c0.1,0,0.2,0.1,0.2,0.1c0.1,0,0.2,0,0.3-0.1c0.1-0.1,0.2-0.3,0.1-0.5l-2.3-6.7l5.2-4.2C46,34.5,46,34.3,46,34.1z"/>
  </symbol>

  <symbol id="star-whole" viewBox="25 26 23 22">
  	<path class="full-icon" d="M46.5,34.1c-0.1-0.2-0.3-0.3-0.5-0.3h-6.7L37,27.3c-0.1-0.2-0.3-0.3-0.5-0.3c-0.2,0-0.4,0.1-0.5,0.3l-2.3,6.5
  		H27c-0.2,0-0.4,0.1-0.5,0.3c0,0.2,0,0.4,0.2,0.5l5.2,4.2l-2.3,6.7c-0.1,0.2,0,0.4,0.1,0.5c0.1,0.1,0.4,0.2,0.6,0l6.2-3.7l6.2,3.7
  		c0.1,0,0.2,0.1,0.2,0.1c0.1,0,0.2,0,0.3-0.1c0.1-0.1,0.2-0.3,0.1-0.5L41,38.8l5.2-4.2C46.5,34.5,46.5,34.3,46.5,34.1z"/>
  </symbol>

  <symbol id="star-half" viewBox="25 26 23 22">
    <path class="empty-icon" d="M46,34.1c-0.1-0.2-0.3-0.3-0.5-0.3h-6.7l-2.3-6.5c-0.1-0.2-0.3-0.3-0.5-0.3c-0.2,0-0.4,0.1-0.5,0.3l-2.3,6.5
      h-6.7c-0.2,0-0.4,0.1-0.5,0.3c0,0.2,0,0.4,0.2,0.5l5.2,4.2l-2.3,6.7c-0.1,0.2,0,0.4,0.1,0.5c0.1,0.1,0.4,0.2,0.6,0l6.2-3.7l6.2,3.7
      c0.1,0,0.2,0.1,0.2,0.1c0.1,0,0.2,0,0.3-0.1c0.1-0.1,0.2-0.3,0.1-0.5l-2.3-6.7l5.2-4.2C46,34.5,46,34.3,46,34.1z"/>
    <path class="full-icon" d="M40.6,38.8"/>
    <path class="full-icon" d="M35.7,42.9L36,27.1c-0.1-0.2,0-0.1-0.2-0.1s-0.2,0.1-0.3,0.3l-2.3,6.5h-6.7c-0.2,0-0.4,0.1-0.5,0.3
      c0,0.2,0,0.4,0.2,0.5l5.2,4.2l-2.3,6.7c-0.1,0.2,0,0.4,0.1,0.5c0.1,0.1,0.4,0.2,0.6,0l6.1-3.6"/>
  </symbol>
</svg>
